{"title":"Pirates of the Caribbean-4 On Stranger Tides 2011 MULTI 1080p Bl","uid":15897011,"size":2706017811,"categoryP":"video","categoryS":"hd___movies","magnet":"?xt=urn:btih:ab833f2054d36b0bc69fa294a8954f6d57a494fe&amp;dn=Pirates+of+the+Caribbean-4+On+Stranger+Tides+2011+MULTI+1080p+Bl&amp;tr=udp%3A%2F%2Ftracker.leechers-paradise.org%3A6969&amp;tr=udp%3A%2F%2Fzer0day.ch%3A1337&amp;tr=udp%3A%2F%2Fopen.demonii.com%3A1337&amp;tr=udp%3A%2F%2Ftracker.coppersurfer.tk%3A6969&amp;tr=udp%3A%2F%2Fexodus.desync.com%3A6969","seeders":20,"leechers":47,"uploader":"SaM","files":3,"time":1474821000,"description":"1080p Blu-ray Rip x264\r\n\r\nEnglish AAC 5.1 Audio\r\n\r\nHindi DDS 5.1 Audio\r\n\r\nEnglish &amp; French Subtitle\r\n\r\n{ SCREENSHOTS}\r\n \nhttps://extraimago.com/image/w9WA \nhttps://extraimago.com/image/w9Wv \nhttps://extraimago.com/image/w9Wu \nhttps://extraimago.com/image/w9WV \nhttps://extraimago.com/image/w9W6 \nhttps://extraimago.com/image/w9Wx \nhttps://extraimago.com/image/w9Wt \nhttps://extraimago.com/image/w9Wo \nhttps://extraimago.com/image/w9Wk \nhttps://extraimago.com/image/w9WH \nhttps://extraimago.com/image/w9WF \nhttps://extraimago.com/image/w9WD \nhttps://extraimago.com/image/w9W5 \nhttps://extraimago.com/image/w9Wg \nhttps://extraimago.com/image/w9WX \nhttps://extraimago.com/image/w9WP\r\n\r\nSpecs:\r\nSource: French BD50 @ DDR\r\n\r\nFormat : Matroska\r\nFormat version : Version 4 / Version 2\r\nFile size : 2.50 GiB\r\nDuration : 2 h 16 min\r\nOverall bit rate : 2 629 kb/s\r\n\r\nVideo\r\nID : 1\r\nFormat : AVC\r\nFormat/Info : Advanced Video Codec\r\nFormat profile :   \r\nFormat settings, CABAC : Yes\r\nFormat settings, ReFrames : 5 frames\r\nCodec ID : V_MPEG4/ISO/AVC\r\nDuration : 2 h 16 min\r\nBit rate : 1 532 kb/s\r\nWidth : 1 920 pixels\r\nHeight : 800 pixels\r\nDisplay aspect ratio : 2.40:1\r\nFrame rate mode : Constant\r\nFrame rate : 23.976 (24000/1001) FPS\r\nColor space : YUV\r\nChroma subsampling : 4:2:0\r\nBit depth : 8 bits\r\nScan type : Progressive\r\nBits/(Pixel*Frame) : 0.042\r\nStream size : 1.46 GiB (58%)\r\nLanguage : English\r\nDefault : Yes\r\nForced : No\r\nColor range : Limited\r\nColor primaries : BT.709\r\nTransfer characteristics : BT.709\r\nMatrix coefficients : BT.709\r\n\r\nAudio #1\r\nID : 2\r\nFormat : AC-3\r\nFormat/Info : Audio Coding 3\r\nMode extension : CM (complete main)\r\nFormat settings, Endianness : Big\r\nCodec ID : A_AC3\r\nDuration : 2 h 16 min\r\nBit rate mode : Constant\r\nBit rate : 448 kb/s\r\nChannel(s) : 6 channels\r\nChannel positions : Front: L C R, Side: L R, LFE\r\nSampling rate : 48.0 kHz\r\nFrame rate : 31.250 FPS (1536 spf)\r\nCompression mode : Lossy\r\nStream size : 437 MiB (17%)\r\nLanguage : English\r\nDefault : Yes\r\nForced : No","torrent":{"xt":"urn:btih:ab833f2054d36b0bc69fa294a8954f6d57a494fe","amp;dn":"Pirates+of+the+Caribbean-4+On+Stranger+Tides+2011+MULTI+1080p+Bl","amp;tr":["udp%3A%2F%2Ftracker.leechers-paradise.org%3A6969","udp%3A%2F%2Fzer0day.ch%3A1337","udp%3A%2F%2Fopen.demonii.com%3A1337","udp%3A%2F%2Ftracker.coppersurfer.tk%3A6969","udp%3A%2F%2Fexodus.desync.com%3A6969"],"infoHash":"ab833f2054d36b0bc69fa294a8954f6d57a494fe","infoHashBuffer":{"type":"Buffer","data":[171,131,63,32,84,211,107,11,198,159,162,148,168,149,79,109,87,164,148,254]},"announce":[],"urlList":[]}}